<svg xmlns="http://www.w3.org/2000/svg" xmlns:xlink="http://www.w3.org/1999/xlink" viewBox="0 0 365.4 306.02"><defs><style>.cls-1{fill:#68e1fd;opacity:0.18;isolation:isolate;}.cls-2{fill:#7bd0ed;}.cls-3{fill:#fff;}.cls-4{fill:url(#linear-gradient);}.cls-5{fill:url(#linear-gradient-2);}.cls-6{fill:url(#linear-gradient-3);}.cls-7{fill:url(#linear-gradient-4);}</style><linearGradient id="linear-gradient" x1="19.28" y1="186.75" x2="14.74" y2="245.12" gradientTransform="matrix(1.33, 0, 0, -1.33, 28.92, 450.27)" gradientUnits="userSpaceOnUse"><stop offset="0.01"/><stop offset="0.13" stop-opacity="0.69"/><stop offset="0.25" stop-opacity="0.32"/><stop offset="1" stop-opacity="0"/></linearGradient><linearGradient id="linear-gradient-2" x1="-25.73" y1="218.18" x2="25.41" y2="241.96" xlink:href="#linear-gradient"/><linearGradient id="linear-gradient-3" x1="176.02" y1="278.98" x2="171.48" y2="337.35" xlink:href="#linear-gradient"/><linearGradient id="linear-gradient-4" x1="131.01" y1="310.41" x2="182.15" y2="334.19" xlink:href="#linear-gradient"/></defs><title>Asset 2 (2)</title><g id="Layer_2" data-name="Layer 2"><g id="Layer_1-2" data-name="Layer 1"><path class="cls-1" d="M81.16,33.25c-12.49,15.39-20.27,34.53-31,51.34-8,12.56-17.69,23.81-25.79,36.32C8.18,145.82-1.57,176.2.21,206.54s15.93,60.31,39.53,76.92c14.49,10.21,31.64,15.06,48.69,18.21,57.41,10.62,119.2,2.44,168.26-31.44,8.42-5.81,16.48-12.38,25.61-16.78,23.47-11.35,53.91-8.72,70.92-29.54,10.24-12.54,12.5-30.46,12.15-47.18C365,156.65,361,135.56,348.8,120.5c-15.94-19.75-42-25-63.51-37.19-21-11.77-37.93-30.3-56-46.85C185.94-3.36,123.53-18.93,81.16,33.25Z"/><path class="cls-2" d="M10.8,147.46V38.85H336.64V147.46l-.28.06c-.49,0-1,0-1.49,0H175.48c-.5,0-1,0-1.49,0l-.23.21q0,9,0,17.92h-72.5c0-3.41.08-6.83.08-10.24,0-2.56-.06-5.12-.1-7.68l-.25-.21c-.41,0-.82,0-1.22,0H12.29c-.41,0-.81,0-1.22,0Zm144.7,0a8.27,8.27,0,0,0,.28-1.52c0-5.46,0-10.92,0-16.37l34.31,0a8.79,8.79,0,0,0,1.52-.26h0a6,6,0,0,0,.27-1.23q0-34.89,0-69.78a5.45,5.45,0,0,0-.29-1.21l0,0a8.78,8.78,0,0,0-1.42-.24H120.84a7.09,7.09,0,0,0-1.4.28c0,.31,0,.63,0,.94v88.49c0,.32,0,.64,0,.95a7,7,0,0,0,1.4.28h33.29a7,7,0,0,0,1.4-.28Zm145-18c5.69,0,11.39,0,17.08,0a2.75,2.75,0,0,0,.82-.28v0a7.73,7.73,0,0,0,.25-1.41q0-34.73,0-69.44a6.85,6.85,0,0,0-.28-1.39h0a7.79,7.79,0,0,0-1.41-.27H211.26a7,7,0,0,0-1.4.28c0,.18,0,.36,0,.54q0,35.4,0,70.81a5.27,5.27,0,0,0,.25,1.08q17.57,0,35.14,0a2.07,2.07,0,0,0,.67-.26c0-1.44,0-2.88.08-4.32a10,10,0,0,0,.23-1.54q0-24.06,0-48.14h17.88v0q0,26.52,0,53.05a5.75,5.75,0,0,0,.25,1.22c5.74,0,11.47,0,17.21,0a2.12,2.12,0,0,0,.68-.26c0-.5,0-1,0-1.49V84.33c0-3,0-6.06,0-9.09h17.84c0,1.71.05,3.43.08,5.14a2.48,2.48,0,0,0,0,.27q0,23.86,0,47.73A4.6,4.6,0,0,0,300.54,129.5ZM29,129.5q17.62,0,35.24,0a2.86,2.86,0,0,0,.81-.27c0-.5,0-1,0-1.49q0-21.72,0-43.44c0-3,0-6.06,0-9.09H83l.08.79q0,14.3,0,28.59,0,11.79,0,23.57v1.07a3.21,3.21,0,0,0,.81.27q8.25,0,16.52,0a2.61,2.61,0,0,0,.81-.28v0a7.76,7.76,0,0,0,.26-1.41q0-34.73,0-69.44A7.61,7.61,0,0,0,101.2,57h0a7.68,7.68,0,0,0-1.4-.27H30.15a7,7,0,0,0-1.4.28l.2.79a8.84,8.84,0,0,0-.22,1.43q0,34.41,0,68.83A6.85,6.85,0,0,0,29,129.5Z"/><path class="cls-2" d="M11.07,147.52l-.27.21v-.27Z"/><path class="cls-2" d="M336.64,147.73l-.28-.21.28-.06Z"/><path class="cls-2" d="M318.45,57.05h-89q-9.65,0-19.28,0a.57.57,0,0,0-.26,0,7,7,0,0,1,1.4-.28H317A7.79,7.79,0,0,1,318.45,57.05Z"/><path class="cls-2" d="M101.22,57.05H28.75a7,7,0,0,1,1.4-.28H99.82A7.68,7.68,0,0,1,101.22,57.05Z"/><path class="cls-2" d="M209.86,57.06a.57.57,0,0,1,.26,0q0,29,0,58.06,0,7,0,14.11a1.94,1.94,0,0,1,0,.24,5.27,5.27,0,0,1-.25-1.08q0-35.41,0-70.81C209.83,57.42,209.85,57.24,209.86,57.06Z"/><path class="cls-2" d="M191.65,57l-69.9,0-2.31,0a7.09,7.09,0,0,1,1.4-.28h69.39A8.78,8.78,0,0,1,191.65,57Z"/><path class="cls-2" d="M101.22,129.28V58.8c0-.59,0-1.18,0-1.76a7.61,7.61,0,0,1,.28,1.39q0,34.73,0,69.44A7.76,7.76,0,0,1,101.22,129.28Z"/><path class="cls-2" d="M191.63,129.27q0-36.11,0-72.22a5.45,5.45,0,0,1,.29,1.21q0,34.89,0,69.78A6,6,0,0,1,191.63,129.27Z"/><path class="cls-2" d="M318.45,129.28q0-35.23,0-70.48c0-.59,0-1.18,0-1.76a6.85,6.85,0,0,1,.28,1.39q0,34.73,0,69.44A7.73,7.73,0,0,1,318.45,129.28Z"/><path class="cls-2" d="M29,57.85c0,.59,0,1.17,0,1.76v67.86c0,.59,0,1.18,0,1.77a.75.75,0,0,0,0,.26,6.85,6.85,0,0,1-.28-1.39q0-34.41,0-68.83A8.84,8.84,0,0,1,29,57.85Z"/><path class="cls-2" d="M264.14,75.22A12.66,12.66,0,0,1,264.4,77q0,26.1,0,52.21a1.93,1.93,0,0,1,0,.24,5.75,5.75,0,0,1-.25-1.22Q264.14,101.75,264.14,75.22Z"/><path class="cls-2" d="M83.06,76a7.07,7.07,0,0,1,.23,1.27q0,24.81,0,49.63a7,7,0,0,1-.23,1.26q0-11.77,0-23.57Q83,90.33,83.06,76Z"/><path class="cls-2" d="M246,124.94q0-19.12,0-38.25c0-3.43,0-6.87,0-10.3a6.72,6.72,0,0,1,.28-1.39.77.77,0,0,0,0,.26q0,24.08,0,48.14A10,10,0,0,1,246,124.94Z"/><path class="cls-2" d="M300.29,80.38a10.07,10.07,0,0,1,.22,1.53q0,22.86,0,45.7c0,.54,0,1.09,0,1.63a.75.75,0,0,0,0,.26,4.6,4.6,0,0,1-.28-1.12q0-23.86,0-47.73A2.48,2.48,0,0,1,300.29,80.38Z"/><path class="cls-2" d="M29,129.5a.75.75,0,0,1,0-.26l36,0a2.86,2.86,0,0,1-.81.27Q46.63,129.53,29,129.5Z"/><path class="cls-2" d="M155.56,129.56a6.76,6.76,0,0,1,1.38-.28h34.71a8.79,8.79,0,0,1-1.52.26l-34.31,0A.75.75,0,0,0,155.56,129.56Z"/><path class="cls-2" d="M119.44,147.44h36.09a7,7,0,0,1-1.4.28H120.84A7,7,0,0,1,119.44,147.44Z"/><path class="cls-2" d="M210.09,129.49a1.94,1.94,0,0,0,0-.24H245.9a2.07,2.07,0,0,1-.67.26Q227.65,129.52,210.09,129.49Z"/><path class="cls-2" d="M83.07,129.26l18.14,0a2.61,2.61,0,0,1-.81.28q-8.27,0-16.52,0A3.21,3.21,0,0,1,83.07,129.26Z"/><path class="cls-2" d="M65.15,75.24A2.86,2.86,0,0,1,66,75q8.1,0,16.21,0a2.86,2.86,0,0,1,.81.27Z"/><path class="cls-2" d="M282.37,75.24a2.86,2.86,0,0,1,.81-.27q8.11,0,16.22,0a2.86,2.86,0,0,1,.81.27Z"/><path class="cls-2" d="M264.4,129.49a1.93,1.93,0,0,0,0-.24h17.88a2.12,2.12,0,0,1-.68.26C275.87,129.53,270.14,129.51,264.4,129.49Z"/><path class="cls-2" d="M300.54,129.5a.75.75,0,0,1,0-.26h17.89a2.75,2.75,0,0,1-.82.28C311.93,129.53,306.23,129.51,300.54,129.5Z"/><path class="cls-2" d="M155.56,129.56a.75.75,0,0,1,.26,0c0,5.45,0,10.91,0,16.37a8.27,8.27,0,0,1-.28,1.52Z"/><path class="cls-2" d="M246.25,75.26a.77.77,0,0,1,0-.26c5.69,0,11.38,0,17.07,0a2.85,2.85,0,0,1,.82.28Z"/><path class="cls-2" d="M101.2,147.73l-.25-.21Z"/><path class="cls-2" d="M174,147.52l-.23.21Z"/><path class="cls-2" d="M173.67,75.24v35.83l-17.84,0,0-35.8Z"/><path class="cls-2" d="M155.8,75.25l0,35.8a1.07,1.07,0,0,0,0,.25,4.64,4.64,0,0,1-.26-1.07q0-17.07,0-34.14a4.89,4.89,0,0,1,.25-1.09A2.18,2.18,0,0,1,155.8,75.25Z"/><path class="cls-2" d="M155.8,75.25a2.18,2.18,0,0,0,0-.25c5.73,0,11.47,0,17.21,0a2.1,2.1,0,0,1,.67.27Z"/><path class="cls-2" d="M155.8,111.3a1.07,1.07,0,0,1,0-.25l17.84,0a1.89,1.89,0,0,1-.65.26Q164.41,111.33,155.8,111.3Z"/><path class="cls-3" d="M98.61,163.54a9,9,0,0,1-2.81,6.56,9.38,9.38,0,0,1-5.62,2.55,11.61,11.61,0,0,1-1.18,0l-66-1.32a9.73,9.73,0,0,1-9.62-9.57,9,9,0,0,1,2.82-6.56,9.5,9.5,0,0,1,6.8-2.65h2.24a18,18,0,0,1,4.85-18,18.37,18.37,0,0,1,5.31-3.53,19.15,19.15,0,0,1,8.08-1.59l5.6.12A19.53,19.53,0,0,1,66,139.86a11.85,11.85,0,0,1,5.17-1.1h1.45A11.55,11.55,0,0,1,84,150.1v.55a10.8,10.8,0,0,1-.44,3l5.46.12A9.72,9.72,0,0,1,98.61,163.54Z"/><path class="cls-4" d="M90.18,172.65a11.61,11.61,0,0,1-1.18,0l-66-1.32a9.73,9.73,0,0,1-9.62-9.57,9,9,0,0,1,2.82-6.56c-2.59,16.28,14.41,14,14.41,14H73.5Z"/><path class="cls-5" d="M30.06,154.51l-4.78-1.82a18,18,0,0,1,4.85-17.95,18.17,18.17,0,0,1,5.31-3.53C22.2,142.57,30.06,154.51,30.06,154.51Z"/><path class="cls-3" d="M306.76,41.06A9,9,0,0,1,304,47.62a9.53,9.53,0,0,1-5.62,2.55,11.61,11.61,0,0,1-1.18,0l-66-1.33a9.71,9.71,0,0,1-9.61-9.56,9,9,0,0,1,2.82-6.56,9.54,9.54,0,0,1,6.79-2.66h2.25A18,18,0,0,1,243.59,8.58,19.14,19.14,0,0,1,251.66,7l5.61.12a19.49,19.49,0,0,1,16.82,10.28,11.86,11.86,0,0,1,5.18-1.1h1.45a11.53,11.53,0,0,1,11.39,11.34v.55a10.49,10.49,0,0,1-.43,3l5.45.12A9.71,9.71,0,0,1,306.76,41.06Z"/><path class="cls-6" d="M298.33,50.17a11.61,11.61,0,0,1-1.18,0l-66-1.33a9.71,9.71,0,0,1-9.61-9.56,9,9,0,0,1,2.82-6.56c-2.59,16.28,14.4,14,14.4,14h42.86Z"/><path class="cls-7" d="M238.21,32l-4.78-1.82a18,18,0,0,1,4.85-18,17.94,17.94,0,0,1,5.31-3.54C230.35,20.09,238.21,32,238.21,32Z"/></g></g></svg>